<?xml version="1.0" standalone="no"?>
<!DOCTYPE svg PUBLIC "-//W3C//DTD SVG 20010904//EN"
 "http://www.w3.org/TR/2001/REC-SVG-20010904/DTD/svg10.dtd">
<svg version="1.0" xmlns="http://www.w3.org/2000/svg"
 width="1280.000000pt" height="1280.000000pt" viewBox="0 0 1280.000000 1280.000000"
 preserveAspectRatio="xMidYMid meet">
<metadata>
Created by potrace 1.15, written by Peter Selinger 2001-2017
</metadata>
<g transform="translate(0.000000,1280.000000) scale(0.100000,-0.100000)"
fill="#000000" stroke="none">
<path d="M2380 12789 c-344 -33 -683 -134 -985 -293 -235 -124 -426 -266 -625
-466 -446 -445 -706 -1006 -760 -1636 -8 -92 -10 -1256 -8 -4079 4 -4358 -2
-3980 64 -4273 219 -980 995 -1757 1977 -1976 294 -66 -79 -61 4357 -61 3817
0 4021 1 4130 18 502 79 912 254 1283 550 465 371 792 892 921 1470 66 294 61
-77 61 4347 0 4312 3 4064 -52 4325 -106 508 -343 946 -713 1315 -413 413
-877 645 -1494 748 -93 15 -405 17 -4086 18 -2192 1 -4023 -2 -4070 -7z m7882
-989 c174 -11 308 -37 449 -86 541 -188 935 -637 1062 -1208 l22 -101 0 -4005
0 -4005 -22 -101 c-127 -571 -522 -1020 -1062 -1208 -57 -20 -149 -46 -205
-59 l-101 -22 -4005 0 -4005 0 -101 22 c-644 143 -1124 623 -1267 1267 l-22
101 0 4005 0 4005 22 101 c113 506 438 921 893 1138 201 95 377 141 595 155
178 12 7570 13 7747 1z"/>
<path d="M9930 10739 c-367 -56 -637 -384 -617 -749 7 -121 26 -193 79 -300
58 -117 187 -247 305 -308 215 -111 460 -111 676 -1 108 56 245 191 299 294
136 262 111 559 -67 793 -149 198 -426 309 -675 271z"/>
<path d="M6110 10084 c-905 -83 -1695 -449 -2320 -1074 -412 -412 -712 -897
-894 -1445 -129 -389 -186 -746 -186 -1165 0 -324 33 -597 106 -890 383 -1533
1687 -2647 3264 -2790 148 -13 492 -13 640 0 1618 147 2941 1314 3289 2900
111 508 109 1060 -5 1580 -233 1060 -928 1967 -1896 2474 -379 199 -789 327
-1248 392 -111 15 -639 28 -750 18z m631 -1009 c496 -65 958 -261 1349 -571
109 -87 327 -305 414 -414 315 -397 514 -874 577 -1385 16 -129 16 -481 0
-610 -40 -322 -122 -598 -266 -890 -317 -642 -878 -1135 -1551 -1360 -791
-264 -1656 -154 -2344 300 -220 145 -466 368 -624 565 -306 383 -498 834 -572
1345 -27 181 -24 533 5 725 44 291 117 530 245 795 139 288 291 501 521 730
219 219 418 364 685 499 329 167 649 255 1050 290 88 8 397 -4 511 -19z"/>
</g>
</svg>
